PathFileType	4	(X/Y/Z)	Patient4_TMGait_0pt4_02_left_25.trc.trc
DataRate	CameraRate	NumFrames	NumMarkers	Units	OrigDataRate	OrigDataStartFrame	OrigNumFrames
74.074074074074	74.074074074074	4	33	mm	74.074074074074	36	       141
Frame#	Time	Sacral			L.Shoulder			Chest			R.Shoulder			Neck			R.ASIS			L.ASIS			R.Thigh.Superior			R.Thigh.Lateral			R.Thigh.Inferior			R.Patella			L.Thigh.Superior			L.Thigh.Lateral			L.Thigh.Inferior			L.Patella			L.Shank.Superior			L.Shank.Lateral			L.Shank.Inferior			R.Shank.Superior			R.Shank.Lateral			R.Shank.Inferior			R.Heel			R.Midfoot.Superior			R.Midfoot.Lateral			R.Toe			L.Heel			L.Midfoot.Lateral			L.Midfoot.Superior			L.Toe			L.Elbow			L.Wrist			R.Elbow			R.Wrist			
		X1	Y1	Z1	X2	Y2	Z2	X3	Y3	Z3	X4	Y4	Z4	X5	Y5	Z5	X6	Y6	Z6	X7	Y7	Z7	X8	Y8	Z8	X9	Y9	Z9	X10	Y10	Z10	X11	Y11	Z11	X12	Y12	Z12	X13	Y13	Z13	X14	Y14	Z14	X15	Y15	Z15	X16	Y16	Z16	X17	Y17	Z17	X18	Y18	Z18	X19	Y19	Z19	X20	Y20	Z20	X21	Y21	Z21	X22	Y22	Z22	X23	Y23	Z23	X24	Y24	Z24	X25	Y25	Z25	X26	Y26	Z26	X27	Y27	Z27	X28	Y28	Z28	X29	Y29	Z29	X30	Y30	Z30	X31	Y31	Z31	X32	Y32	Z32	X33	Y33	Z33	

36	34.092500000000	858.551779951584	1000.073324482350	483.352508110534	1014.874571018741	1438.458109035217	308.165094078483	1131.341578466696	1366.297581604126	458.087362096091	1059.341967921307	1430.812003197441	640.952695940199	1011.125379434991	1494.135858441361	467.215498511588	1095.075768938337	940.475013138330	585.364148772549	1064.118806776614	963.477980018632	312.355199262023	1104.824350092031	729.446463817591	562.244123044778	1009.302782712878	630.212807564848	628.788895680530	1075.897350086616	565.382086095560	551.851976688180	1062.249571089733	470.075443044704	564.952256092586	1135.404439005608	763.697008865969	338.864328143804	1066.591396485908	636.847943232913	273.890440151192	1164.863825387051	570.414873181806	331.808304933053	1174.871695574707	499.155917110244	337.330096429075	1149.637721393067	425.277621566988	327.701604075291	1062.905335697026	310.324329098849	273.392502916451	1119.736389038889	197.351654729319	336.599318276209	1008.363770914099	392.073998914422	572.859985151381	911.327942455571	313.519350200139	638.360375074225	926.750609644352	208.260419563794	579.307287971094	758.353360870565	64.757161871239	561.287647590442	937.100550860128	99.407464005890	582.911773405793	846.425537961265	45.388172706156	627.112739683379	1052.282232179326	38.349595555495	599.379607776391	998.700709655862	38.864482507717	372.659811361106	1071.495123044788	36.249736996578	291.240732439077	1154.415465806728	98.283753700668	317.951447436248	1282.789347017816	46.969241491284	286.749081722670	938.241625551452	1100.945924138856	177.344399767432	1040.085365969770	859.154344433905	145.453048774497	1095.624889057038	1091.457639871775	767.908406327504	1337.304875965852	1062.050748852357	701.273708510217	
37	34.106000000000	858.511619601776	1000.374744956151	479.233967812698	1014.959949965079	1439.059518375060	304.741532802844	1130.950440009933	1367.134309181026	455.134629362375	1058.161652866226	1431.703552500668	637.675202564402	1010.681104428746	1494.708737639885	463.784141083922	1094.938999179041	941.122441383607	582.017593047771	1064.935985080919	964.106290691949	308.974528462437	1106.897678479742	730.329084896048	559.850667318030	1012.518902788375	630.488305886016	626.665851512896	1080.571525821710	565.806025321321	550.411915391771	1067.802829120819	469.104459428633	565.015188217174	1135.540946396189	763.420111671014	335.491229757139	1065.170077032550	636.582550753844	271.845809713337	1163.039873434441	569.664934116222	329.719515043438	1172.547446726229	498.575531655405	336.078129378293	1146.972634682741	424.601967594671	326.763617202330	1059.821906076281	309.982469794800	272.480904223632	1115.468398508827	196.944956827346	336.448110255383	1011.614240787958	392.073608283516	572.799811553459	912.329858959525	316.060084916959	637.724940609064	926.065188021788	210.004335042108	579.856935622828	754.443208481021	70.134318513614	561.882936989958	933.838107413344	99.820352997308	583.376797364173	841.968224549599	47.756357304789	627.425811146622	1047.214052395316	38.028662802817	599.341926703037	993.257035204897	38.849325202024	372.638841154485	1066.061154866108	36.183691637736	291.228134142417	1149.075212577774	98.139445604569	318.038089359766	1277.437386454516	46.558758218923	286.775932693069	941.246930706441	1101.321869932376	172.370835348048	1049.799217168620	862.201698877909	141.962818333575	1090.160894525672	1092.633045164178	766.309659540173	1332.393654141582	1059.985972478766	704.386056919178	
38	34.119500000000	858.449203695618	1000.722527084848	475.063272679464	1015.107396111067	1439.756860100169	301.244296548475	1130.502064114666	1368.060119954693	452.176857561167	1056.781469428085	1432.613754190008	634.355924192261	1010.141522159272	1495.321788886749	460.301824092222	1094.755418304154	941.857384333798	578.645994030367	1065.784682672727	964.781787791614	305.599109674796	1109.558616948122	731.413363578313	557.418549770116	1016.727695116857	630.777897020412	624.618058697245	1086.388039188219	566.392024657798	549.022656567478	1074.593471954808	468.278617629696	565.199327834016	1135.411955129574	762.980594283084	332.353826407752	1063.588698658911	636.415328822575	269.713277263364	1160.789848760770	568.903647063644	327.821244014199	1169.730931470024	497.962824941230	334.826114282717	1143.870882129703	423.933502655909	325.739664108064	1056.392511829984	309.563400820840	271.533171127958	1111.021430472834	196.540482912876	336.237786644547	1016.052912349063	392.215381360064	572.918100369288	914.417652664398	319.033802664190	637.239100448264	926.259344908553	212.178721214001	580.618915182101	751.126179228185	76.689052538207	562.675117228801	931.089545223015	100.382674956272	583.976785995737	837.844301607694	50.808967822282	627.851135483462	1042.136448110844	37.718575506531	599.282098607020	987.774524775388	38.821278170907	372.626726436388	1060.585299883411	36.093905132149	291.217678087075	1143.695281008378	97.964707632485	318.119642739368	1272.047758521363	46.120583324517	286.823922808903	944.322647325602	1101.844808558426	167.343885760467	1059.702828127199	865.657613604203	138.629660068005	1084.088668024227	1093.719879691705	764.397872537914	1326.812432967456	1057.130758685163	707.785456257162	
39	34.133000000000	858.346476616779	1001.092768800531	470.880381688065	1015.334374168623	1440.502116362937	297.699722448169	1130.014484205260	1369.014741444376	449.235583616026	1055.241060533090	1433.505856362669	631.014068519562	1009.523942751889	1495.939304129781	456.784565881631	1094.484201911817	942.629902913705	575.284022411205	1066.621006631316	965.476237622506	302.251508309620	1112.795803355619	732.713512205951	554.943984681275	1021.972717952522	631.087926597383	622.661453057268	1093.365451699905	567.172015798124	547.672704932727	1082.652082520239	467.659113270540	565.452563432194	1135.015928254945	762.433572976642	329.459341976404	1061.873102847096	636.363045417730	267.476141715079	1158.163231737623	568.157693857309	326.049798134556	1166.471166922379	497.338989751354	333.526549603993	1140.384259405920	423.286349517608	324.598138732232	1052.659424627466	309.089242913920	270.514826601761	1106.419938247329	196.150896182785	335.947502477664	1021.754844024201	392.530177249977	573.162022414415	917.702930176731	322.475131100417	636.890845624827	927.422199760765	214.843949137820	581.557708233742	748.563847592425	84.597407115815	563.667234229913	928.927461125748	101.191024856175	584.720923440782	834.143260870491	54.723037111343	628.388694962713	1037.042302064957	37.365137281877	599.211820981533	982.280345320873	38.785539949243	372.609759713427	1055.093619279460	35.989211999203	291.193686604146	1138.294080029618	97.778152884338	318.174976415838	1266.643281239769	45.689087710468	286.874552297073	947.545009637140	1102.472030914501	162.260082832209	1069.814480198342	869.485989338562	135.486618643298	1077.419262144493	1094.675063502094	762.138351573464	1320.521870155926	1053.529285409458	711.361149082684	
